<svg width="24" height="24" viewBox="0 0 24 24" fill="none" xmlns="http://www.w3.org/2000/svg">
<path d="M19.1496 0.00146484H4.84739C2.16872 0.00146484 0 2.17018 0 4.84886V19.1541C0 21.8297 2.16872 23.9985 4.84739 23.9985H19.1526C21.8283 23.9985 24 21.8297 24 19.1511V4.84886C23.997 2.17018 21.8283 0.00146484 19.1496 0.00146484Z" fill="url(#paint0_linear_867_1442)"/>
<path d="M11.8966 5.51479L12.3826 4.67488C12.6825 4.14993 13.3514 3.97297 13.8764 4.27293C14.4013 4.57288 14.5783 5.24179 14.2783 5.76674L9.59591 13.8718H12.9825C14.0803 13.8718 14.6953 15.1616 14.2183 16.0555H4.28961C3.68371 16.0555 3.19775 15.5695 3.19775 14.9636C3.19775 14.3577 3.68371 13.8718 4.28961 13.8718H7.07329L10.6369 7.69551L9.524 5.76374C9.22405 5.23879 9.401 4.57588 9.92596 4.26993C10.4509 3.96997 11.1138 4.14693 11.4198 4.67188L11.8966 5.51479Z" fill="white"/>
<path d="M7.68516 17.1803L6.6353 19.0011C6.33534 19.526 5.66644 19.703 5.14148 19.403C4.61653 19.1031 4.43958 18.4342 4.73953 17.9092L5.51944 16.5594C6.4013 16.2864 7.1182 16.4964 7.68516 17.1803Z" fill="white"/>
<path d="M16.7258 13.8778H19.5664C20.1723 13.8778 20.6583 14.3637 20.6583 14.9696C20.6583 15.5755 20.1723 16.0615 19.5664 16.0615H17.9886L19.0535 17.9093C19.3534 18.4342 19.1765 19.0971 18.6515 19.4031C18.1266 19.703 17.4636 19.5261 17.1577 19.0011C15.3639 15.8905 14.0171 13.5628 13.1232 12.012C12.2083 10.4342 12.8623 8.85038 13.5072 8.31348C14.2241 9.54334 15.295 11.4001 16.7258 13.8778Z" fill="white"/>
<defs>
<linearGradient id="paint0_linear_867_1442" x1="12" y1="0.00146484" x2="12" y2="23.9985" gradientUnits="userSpaceOnUse">
<stop stop-color="#00BFFC"/>
<stop offset="1" stop-color="#0073F6"/>
</linearGradient>
</defs>
</svg>
