<svg width="24" height="24" viewBox="0 0 24 24" fill="none" xmlns="http://www.w3.org/2000/svg">
<g clip-path="url(#clip0_1010_935)">
<path d="M15.7158 12.1003C15.608 12.981 15.2119 13.8206 14.5594 14.4731C13.7663 15.2667 12.6577 15.6403 11.2655 15.584C10.2891 15.5451 9.83814 15.8006 9.76408 15.847C9.46501 16.109 9.08532 16.2525 8.68454 16.2525C8.24626 16.2525 7.83422 16.0818 7.52438 15.772C6.98953 15.2371 6.90328 14.4121 7.26844 13.7835L7.53047 13.3682C7.61953 13.1512 7.74 12.7228 7.71188 12.0304C7.6561 10.6377 8.02969 9.52961 8.82282 8.73648C9.47251 8.08726 10.3031 7.68507 11.2013 7.57772C11.3283 6.96694 11.6035 6.39553 12.0005 5.91553H2.5795C1.5445 5.91553 0.702148 6.75741 0.702148 7.79241V17.1014H20.2866V7.85804L17.9068 10.7746C17.3471 11.4585 16.5699 11.924 15.7158 12.1003V12.1003Z" fill="#1ECECA"/>
<path d="M0.702195 19.1077C0.702195 20.1422 1.54454 20.9841 2.57955 20.9841H7.91485V22.5938H6.73228C6.34396 22.5938 6.02915 22.9086 6.02915 23.2969C6.02915 23.6853 6.34396 24.0001 6.73228 24.0001H14.2564C14.6447 24.0001 14.9595 23.6853 14.9595 23.2969C14.9595 22.9086 14.6447 22.5938 14.2564 22.5938H13.0738V20.9841H18.4093C19.4443 20.9841 20.2866 20.1422 20.2866 19.1077V18.5077H0.702148V19.1077H0.702195Z" fill="#1ECECA"/>
<path d="M8.53607 14.4298C8.53593 14.4299 8.53579 14.43 8.5357 14.4302C8.5356 14.4302 8.53556 14.4302 8.53551 14.4303L8.53532 14.4305C8.53523 14.4306 8.53518 14.4307 8.53509 14.4308C8.53504 14.4309 8.53499 14.4309 8.53485 14.431L8.53481 14.431C8.53476 14.4311 8.53466 14.4312 8.53457 14.4313C8.53457 14.4313 8.53457 14.4313 8.53452 14.4313C8.53448 14.4314 8.53438 14.4315 8.53434 14.4316C8.53434 14.4316 8.53434 14.4316 8.53429 14.4316C8.5342 14.4317 8.53415 14.4317 8.53406 14.4318C8.53406 14.4318 8.53406 14.4318 8.53401 14.4319L8.53377 14.4321C8.4449 14.5239 8.44579 14.6702 8.5364 14.7609C8.5822 14.8067 8.64215 14.8295 8.70215 14.8295C8.76159 14.8295 8.82102 14.8071 8.86663 14.7621C8.88098 14.7485 9.59099 14.0921 11.3401 14.1625C12.3241 14.2021 13.0786 13.9664 13.5829 13.4622C14.6161 12.4289 14.6161 10.7477 13.5829 9.71444C13.0823 9.2139 12.4169 8.93823 11.709 8.93823C11.0011 8.93823 10.3356 9.21386 9.83512 9.71444C9.33093 10.2186 9.09529 10.9732 9.13485 11.9572C9.20554 13.7158 8.54174 14.4239 8.5364 14.4295C8.53621 14.4296 8.53617 14.4297 8.53607 14.4298V14.4298Z" fill="#1ECECA"/>
<path d="M15.6545 10.6546C16.1129 10.5172 16.5259 10.2453 16.8339 9.86894L17.7323 8.76794L14.5318 5.5675L13.4354 6.463C13.0581 6.7705 12.7853 7.183 12.6475 7.64144C13.3721 7.8116 14.0368 8.1805 14.5764 8.72004C15.1286 9.27222 15.4881 9.94488 15.6545 10.6546Z" fill="#1ECECA"/>
<path d="M22.8751 0.422215C22.3515 -0.101378 21.5237 -0.143097 20.95 0.325653L15.627 4.67345L18.6263 7.67284L22.9722 2.34695C23.4405 1.77362 23.3987 0.945809 22.8751 0.422215V0.422215Z" fill="#1ECECA"/>
</g>
<defs>
<clipPath id="clip0_1010_935">
<rect width="24" height="24" fill="white"/>
</clipPath>
</defs>
</svg>
