<svg width="24" height="24" viewBox="0 0 24 24" fill="none" xmlns="http://www.w3.org/2000/svg">
<g clip-path="url(#clip0_867_1075)">
<path d="M15.7158 12.1003C15.608 12.981 15.2119 13.8206 14.5594 14.4731C13.7663 15.2667 12.6577 15.6403 11.2655 15.584C10.2891 15.5451 9.83814 15.8006 9.76408 15.847C9.46501 16.109 9.08532 16.2525 8.68454 16.2525C8.24625 16.2525 7.83422 16.0818 7.52438 15.772C6.98953 15.2371 6.90328 14.4121 7.26844 13.7835L7.53047 13.3682C7.61953 13.1512 7.74 12.7228 7.71188 12.0304C7.6561 10.6377 8.02969 9.52961 8.82282 8.73648C9.47251 8.08726 10.3031 7.68507 11.2013 7.57772C11.3283 6.96694 11.6035 6.39553 12.0005 5.91553H2.5795C1.5445 5.91553 0.702148 6.75741 0.702148 7.79241V17.1014H20.2866V7.85804L17.9068 10.7746C17.3471 11.4585 16.5699 11.924 15.7158 12.1003Z" fill="#202020" fill-opacity="0.5"/>
<path d="M0.702195 19.1076C0.702195 20.1422 1.54454 20.9841 2.57955 20.9841H7.91485V22.5937H6.73228C6.34396 22.5937 6.02915 22.9086 6.02915 23.2969C6.02915 23.6852 6.34396 24 6.73228 24H14.2564C14.6447 24 14.9595 23.6852 14.9595 23.2969C14.9595 22.9086 14.6447 22.5937 14.2564 22.5937H13.0738V20.9841H18.4093C19.4443 20.9841 20.2866 20.1422 20.2866 19.1076V18.5076H0.702148V19.1076H0.702195Z" fill="#202020" fill-opacity="0.5"/>
<path d="M8.53558 14.4298C8.53544 14.4299 8.5353 14.43 8.53521 14.4302C8.53511 14.4302 8.53507 14.4302 8.53502 14.4303L8.53483 14.4305C8.53474 14.4306 8.53469 14.4307 8.5346 14.4308C8.53455 14.4309 8.5345 14.4309 8.53436 14.431L8.53432 14.431C8.53427 14.4311 8.53418 14.4312 8.53408 14.4313C8.53408 14.4313 8.53408 14.4313 8.53404 14.4313C8.53399 14.4314 8.5339 14.4315 8.53385 14.4316C8.53385 14.4316 8.53385 14.4316 8.5338 14.4316C8.53371 14.4317 8.53366 14.4317 8.53357 14.4318C8.53357 14.4318 8.53357 14.4318 8.53352 14.4319L8.53329 14.4321C8.44441 14.5239 8.4453 14.6702 8.53591 14.7609C8.58171 14.8067 8.64166 14.8295 8.70166 14.8295C8.7611 14.8295 8.82054 14.8071 8.86614 14.7621C8.88049 14.7485 9.59051 14.0921 11.3396 14.1625C12.3236 14.2021 13.0781 13.9664 13.5824 13.4622C14.6156 12.4289 14.6156 10.7477 13.5824 9.71444C13.0818 9.2139 12.4164 8.93823 11.7085 8.93823C11.0006 8.93823 10.3352 9.21386 9.83463 9.71444C9.33044 10.2186 9.0948 10.9732 9.13436 11.9572C9.20505 13.7158 8.54125 14.4239 8.53591 14.4295C8.53572 14.4296 8.53568 14.4297 8.53558 14.4298Z" fill="#202020" fill-opacity="0.5"/>
<path d="M15.655 10.6546C16.1134 10.5172 16.5264 10.2453 16.8344 9.86894L17.7328 8.76794L14.5323 5.5675L13.4359 6.463C13.0586 6.7705 12.7858 7.183 12.6479 7.64144C13.3726 7.8116 14.0373 8.1805 14.5769 8.72004C15.129 9.27222 15.4886 9.94488 15.655 10.6546Z" fill="#202020" fill-opacity="0.5"/>
<path d="M22.8751 0.422215C22.3515 -0.101378 21.5237 -0.143097 20.95 0.325653L15.627 4.67345L18.6263 7.67284L22.9722 2.34695C23.4405 1.77362 23.3987 0.945809 22.8751 0.422215Z" fill="#202020" fill-opacity="0.5"/>
</g>
<defs>
<clipPath id="clip0_867_1075">
<rect width="24" height="24" fill="white"/>
</clipPath>
</defs>
</svg>
