<svg width="64" height="64" viewBox="0 0 64 64" fill="none" xmlns="http://www.w3.org/2000/svg">
<rect width="64" height="64" rx="16" fill="#1ECECA"/>
<path d="M38.9072 15.0001H25.0923C23.7123 15.0001 22.5923 16.1201 22.5923 17.5001V44.5C22.5923 45.88 23.7123 47 25.0923 47H38.9072C40.2872 47 41.4072 45.88 41.4072 44.5C41.4072 35.4927 41.4072 26.4773 41.4072 17.5001C41.4072 16.1201 40.2872 15.0001 38.9072 15.0001ZM32.1573 17.2001H33.8573C34.1323 17.2001 34.3573 17.4201 34.3573 17.7001C34.3573 17.9751 34.1323 18.2001 33.8573 18.2001H32.1573C31.8773 18.2001 31.6573 17.9751 31.6573 17.7001C31.6573 17.4201 31.8773 17.2001 32.1573 17.2001ZM30.1423 17.2001H30.3173C30.5973 17.2001 30.8173 17.4201 30.8173 17.7001C30.8173 17.9751 30.5973 18.2001 30.3173 18.2001H30.1423C29.8673 18.2001 29.6423 17.9751 29.6423 17.7001C29.6423 17.4201 29.8673 17.2001 30.1423 17.2001ZM32.8523 44.81H31.1473C30.8723 44.81 30.6473 44.585 30.6473 44.31C30.6473 44.03 30.8723 43.81 31.1473 43.81H32.8523C33.1273 43.81 33.3523 44.03 33.3523 44.31C33.3523 44.585 33.1273 44.81 32.8523 44.81ZM39.8746 41.61H24.1249V20.3901H39.8746V41.61H39.8746Z" fill="white"/>
<path d="M31.0465 40.52H32.9526C33.2992 40.52 33.5801 40.22 33.5801 39.85V37.805C33.5801 37.435 33.2992 37.135 32.9526 37.135H31.0465C30.7 37.135 30.4189 37.435 30.4189 37.805V39.85C30.419 40.22 30.7 40.52 31.0465 40.52Z" fill="white"/>
<path d="M26.1713 35.56H28.0774C28.4239 35.56 28.705 35.255 28.705 34.885V32.845C28.705 32.475 28.4239 32.175 28.0774 32.175H26.1713C25.8247 32.175 25.5391 32.475 25.5391 32.845V34.885C25.5391 35.255 25.8247 35.56 26.1713 35.56Z" fill="white"/>
<path d="M35.922 35.56H37.8281C38.1746 35.56 38.4603 35.255 38.4603 34.885V32.845C38.4603 32.475 38.1746 32.175 37.8281 32.175H35.922C35.5754 32.175 35.2944 32.475 35.2944 32.845V34.885C35.2944 35.255 35.5754 35.56 35.922 35.56Z" fill="white"/>
<path d="M35.922 40.52H37.8281C38.1746 40.52 38.4603 40.22 38.4603 39.85V37.805C38.4603 37.435 38.1746 37.135 37.8281 37.135H35.922C35.5754 37.135 35.2944 37.435 35.2944 37.805V39.85C35.2944 40.22 35.5754 40.52 35.922 40.52Z" fill="white"/>
<path d="M26.1713 40.52H28.0774C28.4239 40.52 28.705 40.22 28.705 39.85V37.805C28.705 37.435 28.4239 37.135 28.0774 37.135H26.1713C25.8247 37.135 25.5391 37.435 25.5391 37.805V39.85C25.5391 40.22 25.8247 40.52 26.1713 40.52Z" fill="white"/>
<path d="M31.0465 35.56H32.9526C33.2992 35.56 33.5801 35.255 33.5801 34.885V32.845C33.5801 32.475 33.2992 32.175 32.9526 32.175H31.0465C30.7 32.175 30.4189 32.475 30.4189 32.845V34.885C30.419 35.255 30.7 35.56 31.0465 35.56Z" fill="white"/>
</svg>
