<svg width="24" height="24" viewBox="0 0 24 24" fill="none" xmlns="http://www.w3.org/2000/svg">
<path fill-rule="evenodd" clip-rule="evenodd" d="M5.45455 0H18.5455C19.9916 0.0017322 21.3779 0.576958 22.4005 1.5995C23.423 2.62205 23.9983 4.00841 24 5.45451V14.1817C23.9983 15.6278 23.423 17.0142 22.4005 18.0367C21.3779 19.0593 19.9916 19.6345 18.5455 19.6362H12.3273L6.06 23.8166C5.89571 23.9262 5.70474 23.9891 5.50747 23.9987C5.3102 24.0083 5.11403 23.9641 4.93989 23.871C4.76575 23.7778 4.62017 23.6391 4.51868 23.4697C4.41719 23.3002 4.36361 23.1064 4.36364 22.9089V19.5271C3.13245 19.2739 2.0262 18.604 1.23133 17.6303C0.436462 16.6566 0.00158675 15.4387 0 14.1817V5.45451C0.00173221 4.00841 0.576962 2.62205 1.59951 1.5995C2.62206 0.576958 4.00844 0.0017322 5.45455 0ZM6.27886 12.0326C5.72614 12.0326 5.26795 11.8654 4.90432 11.5308C4.55523 11.1817 4.38068 10.7526 4.38068 10.2436C4.38068 9.73447 4.55523 9.31265 4.90432 8.97811C5.26795 8.62902 5.72614 8.45448 6.27886 8.45448C6.81705 8.45448 7.26068 8.62902 7.60977 8.97811C7.95886 9.31265 8.13341 9.73447 8.13341 10.2436C8.13341 10.7526 7.95886 11.1817 7.60977 11.5308C7.26068 11.8654 6.81705 12.0326 6.27886 12.0326ZM11.9465 12.0326C11.3938 12.0326 10.9356 11.8654 10.5719 11.5308C10.2228 11.1817 10.0483 10.7526 10.0483 10.2436C10.0483 9.73447 10.2228 9.31265 10.5719 8.97811C10.9356 8.62902 11.3938 8.45448 11.9465 8.45448C12.4847 8.45448 12.9283 8.62902 13.2774 8.97811C13.6265 9.31265 13.801 9.73447 13.801 10.2436C13.801 10.7526 13.6265 11.1817 13.2774 11.5308C12.9283 11.8654 12.4847 12.0326 11.9465 12.0326ZM16.2395 11.5308C16.6032 11.8654 17.0614 12.0326 17.6141 12.0326C18.1523 12.0326 18.5959 11.8654 18.945 11.5308C19.2941 11.1817 19.4686 10.7526 19.4686 10.2436C19.4686 9.73447 19.2941 9.31265 18.945 8.97811C18.5959 8.62902 18.1523 8.45448 17.6141 8.45448C17.0614 8.45448 16.6032 8.62902 16.2395 8.97811C15.8905 9.31265 15.7159 9.73447 15.7159 10.2436C15.7159 10.7526 15.8905 11.1817 16.2395 11.5308Z" fill="#1ECECA"/>
</svg>
