<svg width="24" height="24" viewBox="0 0 24 24" fill="none" xmlns="http://www.w3.org/2000/svg">
<path d="M17.9239 8.23237C15.1358 6.67298 10.661 4.16897 3.72008 0.282608C3.25213 -0.0264393 2.71372 -0.0669392 2.24854 0.0905139L14.1571 11.9991L17.9239 8.23237Z" fill="#32BBFF"/>
<path d="M2.24836 0.0904541C2.16118 0.119985 2.07633 0.15561 1.99519 0.198642C1.48149 0.476517 1.104 1.01122 1.104 1.68749V22.3106C1.104 22.9869 1.48144 23.5216 1.99519 23.7994C2.07619 23.8424 2.16099 23.8782 2.24808 23.9079L14.157 11.999L2.24836 0.0904541Z" fill="#32BBFF"/>
<path d="M14.1569 11.9991L2.24805 23.908C2.71338 24.0666 3.25178 24.0292 3.71988 23.7156C10.451 19.9464 14.8755 17.4721 17.6957 15.8994C17.7743 15.8553 17.8512 15.8122 17.9272 15.7695L14.1569 11.9991Z" fill="#32BBFF"/>
<path d="M1.104 11.999V22.3106C1.104 22.9869 1.48144 23.5216 1.99519 23.7994C2.07619 23.8424 2.16099 23.8781 2.24808 23.9079L14.157 11.999H1.104Z" fill="#2C9FD9"/>
<path d="M3.71984 0.282558C3.16413 -0.0843793 2.50882 -0.0739261 1.99512 0.198699L13.9761 12.1798L17.9236 8.23232C15.1356 6.67293 10.6607 4.16892 3.71984 0.282558Z" fill="#29CC5E"/>
<path d="M13.9762 11.8185L1.99512 23.7995C2.50887 24.0721 3.16413 24.0878 3.71984 23.7156C10.451 19.9464 14.8754 17.4721 17.6957 15.8994C17.7742 15.8553 17.8511 15.8122 17.9272 15.7695L13.9762 11.8185Z" fill="#D93F21"/>
<path d="M22.8961 11.9991C22.8961 11.4276 22.6077 10.851 22.0363 10.5312C22.0363 10.5312 20.9676 9.93491 17.6918 8.10266L13.7954 11.9991L17.6956 15.8993C20.9354 14.0802 22.0362 13.4668 22.0362 13.4668C22.6077 13.1471 22.8961 12.5705 22.8961 11.9991Z" fill="#FFD500"/>
<path d="M22.0363 13.4669C22.6077 13.1471 22.8961 12.5704 22.8961 11.999H13.7954L17.6956 15.8993C20.9355 14.0802 22.0363 13.4669 22.0363 13.4669Z" fill="#FFAA00"/>
</svg>
