<svg width="20" height="32" viewBox="0 0 20 32" fill="none" xmlns="http://www.w3.org/2000/svg">
<path d="M16.9072 8.96454e-05H3.09228C1.71228 8.96454e-05 0.592285 1.12008 0.592285 2.50008V29.5C0.592285 30.88 1.71228 32 3.09228 32H16.9072C18.2872 32 19.4072 30.88 19.4072 29.5C19.4072 20.4927 19.4072 11.4773 19.4072 2.50008C19.4072 1.12008 18.2872 8.96454e-05 16.9072 8.96454e-05V8.96454e-05ZM10.1573 2.20009H11.8573C12.1323 2.20009 12.3573 2.4201 12.3573 2.70009C12.3573 2.97509 12.1323 3.2001 11.8573 3.2001H10.1573C9.87726 3.2001 9.65725 2.97509 9.65725 2.70009C9.65726 2.4201 9.87726 2.20009 10.1573 2.20009ZM8.14228 2.20009H8.31727C8.59727 2.20009 8.81727 2.4201 8.81727 2.70009C8.81727 2.97509 8.59727 3.2001 8.31727 3.2001H8.14228C7.86728 3.2001 7.64228 2.97509 7.64228 2.70009C7.64228 2.4201 7.86729 2.20009 8.14228 2.20009ZM10.8523 29.81H9.14728C8.87226 29.81 8.64728 29.585 8.64728 29.31C8.64728 29.03 8.87226 28.81 9.14728 28.81H10.8523C11.1273 28.81 11.3523 29.03 11.3523 29.31C11.3523 29.585 11.1273 29.81 10.8523 29.81ZM17.8746 26.61H2.1249V5.39009H17.8746V26.61H17.8746Z" fill="white"/>
</svg>
